<svg width="175" viewBox="0 0 1282 397" fill="none" xmlns="http://www.w3.org/2000/svg">
<path d="M197.899 396.1C195.366 396.1 192.799 396.033 190.199 395.9C87.5994 392 4.29932 308.7 0.399321 206.2C-0.300679 188 14.1995 166.2 32.2995 165.5C50.2995 165.3 65.5995 185.5 66.2995 203.7C68.7995 270.8 125.499 327.5 192.699 330.1C228.999 331.4 263.1 318.4 289.1 293.4C315.2 268.3 329.499 234.6 329.499 198.5C329.499 180.3 344.199 165.5 362.499 165.5C380.699 165.5 395.399 180.3 395.399 198.5C395.399 252.7 373.899 303.2 334.899 340.8C297.699 376.6 249.299 396.1 197.899 396.1Z" fill="url(#paint0_linear_673_38)"/>
<path d="M362.5 237.9C362.033 237.9 361.6 237.867 361.2 237.8C343 237.1 328.8 221.8 329.5 203.7C330.9 167.5 317.9 133.2 292.8 107.2C267.8 81.2 234.1 66.8 198 66.8C179.8 66.8 165 52.1 165 33.9C165 15.7 179.8 0.900024 198 0.900024C252.2 0.900024 302.7 22.4 340.3 61.5C377.9 100.5 397.4 151.9 395.4 206.2C394.7 223.9 380.1 237.9 362.5 237.9Z" fill="url(#paint1_linear_673_38)"/>
<path d="M32.1006 172C49.4006 171.7 64.4006 184.5 66.1006 201.7C66.2339 200.633 66.3005 199.567 66.3005 198.5C66.3005 163.3 80.0004 130.2 104.9 105.4C129.7 80.5 162.8 66.8 198 66.8C216.2 66.8 230.9 52.1 230.9 33.9C230.9 15.7 216.2 0.900024 198 0.900024C145.2 0.900024 95.6005 21.5 58.3005 58.8C20.9005 96.1 0.400391 145.7 0.400391 198.5C0.400391 199.5 0.400488 201 0.500488 202C0.700488 200.6 1.10039 198.7 1.40039 197.4C4.70039 183.3 16.9006 172.5 32.1006 172Z" fill="url(#paint2_linear_673_38)"/>
<path d="M518 231V121.9C518 118.5 519.9 116.2 523.3 116.2H553.8C557.3 116.2 559.2 118.5 559.2 121.9V223.4C559.2 252.7 573.7 269.5 600 269.5C625.9 269.5 644.6 252.7 644.6 223.4V121.9C644.6 118.5 646.5 116.2 649.9 116.2H680.1C683.5 116.2 685.8 118.5 685.8 121.9V297.3C685.8 300.8 683.5 303.1 680.1 303.1H651.5C647.7 303.1 646.1 301.5 645.7 297L644.6 274.1C633.9 293.2 614.8 307.6 585.5 307.6C545.8 307.6 518 280.2 518 231Z" fill="white"/>
<path fill-rule="evenodd" clip-rule="evenodd" d="M721.301 369.8V121.9C721.301 118.5 723.201 116.2 726.601 116.2H754.401C757.901 116.2 759.801 118.5 759.801 121.9L760.501 147.1C773.501 125.3 795.601 111.6 826.501 111.6C879.901 111.6 916.501 154.3 916.501 209.6C916.501 265.3 879.901 307.6 826.501 307.6C797.501 307.6 775.801 295.4 762.501 275.2V369.8C762.501 373.2 760.501 375.5 757.101 375.5H726.601C723.201 375.5 721.301 373.2 721.301 369.8ZM818.501 269.9C852.101 269.9 876.501 245.9 876.501 209.6C876.501 173.8 852.101 149.4 818.501 149.4C785.301 149.4 762.101 173.8 762.101 210C762.101 245.9 785.301 269.9 818.501 269.9Z" fill="white"/>
<path d="M942.9 297.3V36.1C942.9 32.6 944.8 30.4 948.2 30.4H978.7C982.1 30.4 984.101 32.6 984.101 36.1V297.3C984.101 300.8 982.1 303.1 978.7 303.1H948.2C944.8 303.1 942.9 300.8 942.9 297.3Z" fill="white"/>
<path d="M1016.8 52.1C1016.8 39.1 1027.1 28.4 1040.9 28.4C1054.2 28.4 1064.5 39.1 1064.5 52.1C1064.5 65.4 1054.2 76.1 1040.9 76.1C1027.1 76.1 1016.8 65.4 1016.8 52.1ZM1019.9 121.9C1019.9 118.5 1021.8 116.2 1025.2 116.2H1056.1C1059.6 116.2 1061.5 118.5 1061.5 121.9V297.3C1061.5 300.8 1059.6 303.1 1056.1 303.1H1025.2C1021.8 303.1 1019.9 300.8 1019.9 297.3V121.9Z" fill="white"/>
<path fill-rule="evenodd" clip-rule="evenodd" d="M1087.8 209.6C1087.8 154.3 1129 111.6 1184.7 111.6C1240 111.6 1281.2 154.3 1281.2 209.6C1281.2 264.9 1240 307.6 1184.7 307.6C1129 307.6 1087.8 264.9 1087.8 209.6ZM1184.7 269.5C1216.7 269.5 1241.5 245.5 1241.5 209.6C1241.5 173.8 1216.7 149.7 1184.7 149.7C1152.2 149.7 1127.5 173.8 1127.5 209.6C1127.5 245.5 1152.2 269.5 1184.7 269.5Z" fill="white"/>
<defs>
<linearGradient id="paint0_linear_673_38" x1="-196.065" y1="55.801" x2="200.023" y2="-172.881" gradientUnits="userSpaceOnUse">
<stop offset="0.062" stop-color="#624E9A"/>
<stop offset="0.287" stop-color="#B77EEF"/>
<stop offset="0.681" stop-color="#F4A7DB"/>
<stop offset="1" stop-color="#C1B4E6"/>
</linearGradient>
<linearGradient id="paint1_linear_673_38" x1="395.529" y1="237.858" x2="395.529" y2="0.911012" gradientUnits="userSpaceOnUse">
<stop offset="0.062" stop-color="#624E9A"/>
<stop offset="0.577" stop-color="#B77EEF"/>
<stop offset="0.923" stop-color="#C1B4E6"/>
</linearGradient>
<linearGradient id="paint2_linear_673_38" x1="203.351" y1="0.911024" x2="203.351" y2="201.993" gradientUnits="userSpaceOnUse">
<stop offset="0.062" stop-color="#624E9A"/>
<stop offset="0.577" stop-color="#B77EEF"/>
<stop offset="0.923" stop-color="#C1B4E6"/>
</linearGradient>
</defs>
</svg>
